<svg width="256" height="256" viewBox="0 0 256 256" fill="none" xmlns="http://www.w3.org/2000/svg">
<g clip-path="url(#clip0_795_196)">
<path d="M238.912 146.939C238.912 162.668 189.255 175.42 128 175.42C66.745 175.42 17.0881 162.668 17.0881 146.939M238.912 146.939V153.213C238.912 165.809 217.529 176.84 185.517 182.935M238.912 146.939C238.912 139.042 226.398 131.897 206.185 126.738M17.0881 146.939V153.213C17.0881 165.809 38.4711 176.84 70.4827 182.935M17.0881 146.939C17.0881 139.042 29.6018 131.897 49.8146 126.738M185.517 182.935C171.828 191.719 156.188 199.034 128 199.034C99.8117 199.034 84.1722 191.719 70.4827 182.935M185.517 182.935C168.747 186.129 149.059 187.968 128 187.968C106.941 187.968 87.2534 186.129 70.4827 182.935M49.8146 126.738C49.6468 129.084 49.594 131.042 49.594 132.498C49.594 139.793 84.6976 145.706 128 145.706C171.302 145.706 206.406 139.793 206.406 132.498C206.406 131.042 206.353 129.084 206.185 126.738M49.8146 126.738C51.3273 105.592 69.7537 52.9658 128 52.9658C186.246 52.9658 204.673 105.592 206.185 126.738" stroke="black" stroke-width="6"/>
<path d="M107.873 76.9116H94.5241L120.216 103.554L94.5241 130.196H107.873L126.891 110.475L145.908 130.196H159.257L107.873 76.9116Z" fill="black"/>
<path d="M159.257 76.9116H145.908L129.571 93.8526L136.246 100.774L159.257 76.9116Z" fill="black"/>
</g>
<defs>
<clipPath id="clip0_795_196">
<rect width="256" height="256" fill="white"/>
</clipPath>
</defs>
</svg>
