<svg width="904" height="256" viewBox="0 0 904 256" fill="none" xmlns="http://www.w3.org/2000/svg">
<g clip-path="url(#clip0_795_304)">
<path d="M270.912 146.939C270.912 162.668 221.255 175.42 160 175.42C98.745 175.42 49.0881 162.668 49.0881 146.939M270.912 146.939V153.213C270.912 165.809 249.529 176.84 217.517 182.935M270.912 146.939C270.912 139.042 258.398 131.897 238.185 126.738M49.0881 146.939V153.213C49.0881 165.809 70.4711 176.84 102.483 182.935M49.0881 146.939C49.0881 139.042 61.6018 131.897 81.8146 126.738M217.517 182.935C203.828 191.719 188.188 199.034 160 199.034C131.812 199.034 116.172 191.719 102.483 182.935M217.517 182.935C200.747 186.129 181.059 187.968 160 187.968C138.941 187.968 119.253 186.129 102.483 182.935M81.8146 126.738C81.6468 129.084 81.594 131.042 81.594 132.498C81.594 139.793 116.698 145.706 160 145.706C203.302 145.706 238.406 139.793 238.406 132.498C238.406 131.042 238.353 129.084 238.185 126.738M81.8146 126.738C83.3273 105.592 101.754 52.9658 160 52.9658C218.246 52.9658 236.673 105.592 238.185 126.738" stroke="white" stroke-width="6"/>
<path d="M139.873 76.9116H126.524L152.216 103.554L126.524 130.196H139.873L158.891 110.475L177.908 130.196H191.257L139.873 76.9116Z" fill="white"/>
<path d="M191.257 76.9116H177.908L161.571 93.8526L168.246 100.774L191.257 76.9116Z" fill="white"/>
</g>
<path d="M391.777 158H328.613V92.0234H340.625V145.988H391.777V158ZM477.5 158H465.488V139.895H419.258V127.648H465.488V103.859H434.258C431.328 103.859 428.574 104.426 425.996 105.559C423.418 106.652 421.172 108.156 419.258 110.07C417.344 111.984 415.82 114.23 414.688 116.809C413.594 119.348 413.047 122.082 413.047 125.012V158H400.918V125.012C400.918 120.402 401.797 116.086 403.555 112.062C405.312 108.039 407.695 104.523 410.703 101.516C413.711 98.5078 417.246 96.1445 421.309 94.4258C425.371 92.668 429.688 91.7891 434.258 91.7891H477.5V158ZM555.43 158C555.43 153.625 554.688 149.387 553.203 145.285C551.758 141.145 549.785 137.258 547.285 133.625C544.824 129.953 541.953 126.535 538.672 123.371C535.43 120.207 532.012 117.395 528.418 114.934C524.824 112.434 521.152 110.344 517.402 108.664C513.691 106.945 510.156 105.676 506.797 104.855V158H494.785V92.0234H501.289V92.1406C505.586 92.375 510.156 93.332 515 95.0117C519.883 96.6523 524.727 98.8984 529.531 101.75C534.375 104.562 539.023 107.922 543.477 111.828C547.969 115.695 551.953 119.973 555.43 124.66V92.0234H567.383V158H555.43ZM662.949 124.777C662.949 129.426 662.207 133.781 660.723 137.844C659.238 141.867 657.148 145.383 654.453 148.391C651.758 151.359 648.496 153.703 644.668 155.422C640.879 157.141 636.68 158 632.07 158H602.598V145.871H632.07C635 145.871 637.617 145.324 639.922 144.23C642.227 143.137 644.18 141.652 645.781 139.777C647.422 137.863 648.672 135.637 649.531 133.098C650.391 130.52 650.82 127.746 650.82 124.777C650.82 121.848 650.391 119.113 649.531 116.574C648.672 114.035 647.422 111.828 645.781 109.953C644.18 108.078 642.227 106.594 639.922 105.5C637.617 104.406 635 103.859 632.07 103.859H596.914V158H584.668V91.7891H632.07C636.68 91.7891 640.879 92.6484 644.668 94.3672C648.496 96.0859 651.758 98.4297 654.453 101.398C657.148 104.367 659.238 107.863 660.723 111.887C662.207 115.871 662.949 120.168 662.949 124.777ZM745.215 158H676.309V91.7891H745.215V103.859H688.438V145.871H745.215V158ZM737.539 130.637H694.121V118.508H737.539V130.637ZM836.27 158H819.922L801.172 140.129H776.855V128.234H810.078C811.758 128.234 813.34 127.902 814.824 127.238C816.309 126.574 817.598 125.695 818.691 124.602C819.785 123.469 820.645 122.16 821.27 120.676C821.895 119.191 822.207 117.629 822.207 115.988C822.207 114.309 821.895 112.746 821.27 111.301C820.645 109.816 819.785 108.527 818.691 107.434C817.598 106.34 816.309 105.48 814.824 104.855C813.34 104.191 811.758 103.859 810.078 103.859H770.586V158H758.574V92.0234L810.078 92.0234C813.398 92.0234 816.523 92.668 819.453 93.957C822.383 95.207 824.922 96.9258 827.07 99.1133C829.258 101.262 830.977 103.801 832.227 106.73C833.477 109.621 834.102 112.707 834.102 115.988C834.102 118.684 833.672 121.281 832.812 123.781C831.953 126.242 830.742 128.508 829.18 130.578C827.656 132.609 825.84 134.367 823.73 135.852C821.621 137.336 819.316 138.43 816.816 139.133L836.27 158Z" fill="white"/>
<defs>
<clipPath id="clip0_795_304">
<rect width="256" height="256" fill="white" transform="translate(32)"/>
</clipPath>
</defs>
</svg>
